<svg width="922" height="654" viewBox="0 0 922 654" fill="none" xmlns="http://www.w3.org/2000/svg">
<g clip-path="url(#clip0)">
<path d="M85.3439 584.41C132.288 584.41 170.344 581.723 170.344 578.41C170.344 575.096 132.288 572.41 85.3439 572.41C38.3997 572.41 0.343933 575.096 0.343933 578.41C0.343933 581.723 38.3997 584.41 85.3439 584.41Z" fill="#D0CDE1"/>
<path d="M343.344 653.41C465.399 653.41 564.344 648.709 564.344 642.91C564.344 637.111 465.399 632.41 343.344 632.41C221.289 632.41 122.344 637.111 122.344 642.91C122.344 648.709 221.289 653.41 343.344 653.41Z" fill="#D0CDE1"/>
<path d="M458.344 218.41L462.344 211.41L442.344 207.41L440.344 217.41L443.344 225.41L458.344 218.41Z" fill="#6C63FF"/>
<path opacity="0.2" d="M458.344 218.41L462.344 211.41L442.344 207.41L440.344 217.41L443.344 225.41L458.344 218.41Z" fill="black"/>
<path d="M446.844 213.91C461.203 213.91 472.844 202.269 472.844 187.91C472.844 173.55 461.203 161.91 446.844 161.91C432.485 161.91 420.844 173.55 420.844 187.91C420.844 202.269 432.485 213.91 446.844 213.91Z" fill="#FFB8B8"/>
<path d="M424.844 187.91L403.844 222.91L434.844 240.91L450.844 203.91L424.844 187.91Z" fill="#FFB8B8"/>
<path d="M422.844 228.91L395.844 217.91C395.844 217.91 354.844 224.91 350.844 237.91C346.844 250.91 346.844 355.91 346.844 355.91C346.844 355.91 336.844 381.91 350.844 382.91C350.844 382.91 346.844 388.91 350.844 389.91C354.844 390.91 395.844 389.91 411.844 394.91C427.844 399.91 459.844 403.91 459.844 398.91V389.91C459.844 389.91 466.844 382.91 462.844 370.91C458.844 358.91 453.844 332.91 453.844 332.91C453.844 332.91 483.844 266.91 480.844 258.91C477.844 250.91 441.217 226.172 441.217 226.172L422.844 228.91Z" fill="#0085FF"/>
<path d="M360.844 355.91L361.844 363.91L375.844 346.91H370.844L360.844 355.91Z" fill="#FFB8B8"/>
<path d="M422.844 228.91L393.844 221.91C393.844 221.91 387.844 216.91 387.844 210.91C387.844 204.91 396.844 195.91 402.844 189.91C403.366 189.374 403.992 188.95 404.683 188.663C405.374 188.376 406.116 188.232 406.864 188.239C412.804 188.189 420.004 195.98 420.004 195.98L412.014 209.31L411.654 209.899L422.844 228.91Z" fill="#0085FF"/>
<path d="M445.197 216.968L462.344 211.41C462.344 211.41 467.844 232.91 461.844 233.91C455.844 234.91 422.844 231.91 422.844 231.91L445.197 216.968Z" fill="#0085FF"/>
<path d="M352.844 384.91L339.844 458.91C339.844 458.91 334.844 467.91 336.844 471.91C338.844 475.91 339.844 475.91 336.844 477.91C333.844 479.91 329.844 477.91 330.844 482.91C331.443 485.874 331.778 488.886 331.844 491.91L303.844 587.91C303.844 587.91 285.844 595.91 298.844 600.91C311.844 605.91 324.844 609.91 327.844 604.91C330.844 599.91 327.844 593.91 327.844 593.91L373.844 483.91C373.844 483.91 380.844 473.91 380.844 467.91C380.844 461.91 403.844 418.91 403.844 418.91C403.844 418.91 404.844 461.91 405.844 464.91C406.844 467.91 403.844 473.91 403.844 477.91C403.844 481.91 401.844 481.91 403.844 483.91C405.844 485.91 405.844 508.91 405.844 508.91C405.844 508.91 393.844 597.91 400.844 598.91C407.844 599.91 427.844 597.91 427.844 593.91C427.844 589.91 424.844 588.91 424.844 588.91L437.844 512.91C437.844 512.91 436.844 507.91 438.844 503.91C440.844 499.91 440.844 499.91 440.844 497.91C440.844 495.91 439.844 494.91 440.844 493.91C441.497 493.046 441.849 491.992 441.844 490.91C441.844 490.91 439.844 484.91 440.844 483.91C441.844 482.91 463.844 407.91 456.844 398.91C449.844 389.91 352.844 384.91 352.844 384.91Z" fill="#2F2E41"/>
<path d="M401.844 595.91L394.844 611.91C394.844 611.91 378.844 629.91 390.844 633.91C402.844 637.91 406.844 636.91 406.844 636.91C406.844 636.91 411.844 637.91 411.844 639.91C411.844 641.91 451.844 656.91 454.844 643.91C457.844 630.91 423.844 606.91 423.844 606.91V594.91L401.844 595.91Z" fill="#2F2E41"/>
<path d="M324.709 603.316L326.223 620.714C326.223 620.714 335.625 642.886 322.976 642.838C310.327 642.789 306.857 640.562 306.857 640.562C306.857 640.562 301.8 639.91 301.16 641.805C300.52 643.7 257.824 645.117 259.14 631.84C260.456 618.564 300.347 606.701 300.347 606.701L304.185 595.331L324.709 603.316Z" fill="#2F2E41"/>
<path d="M421.52 195.027C423.126 194.919 424.197 193.169 424.641 191.503C425.086 189.838 425.199 188.013 426.106 186.582C428.592 182.66 435.056 184.244 437.681 180.429C439.296 178.082 438.958 174.261 441.288 172.768C442.76 171.826 444.636 172.311 446.258 172.904C452.543 175.217 458.346 178.673 463.374 183.097L465.462 181.397L468.07 186.612C469.081 185.392 471.032 186.338 471.88 187.693C472.729 189.049 473.14 190.781 474.35 191.769C476.279 193.343 479.292 192.01 480.46 189.728C481.628 187.445 481.435 184.656 481.03 182.086C480.022 175.65 477.872 169.445 474.682 163.764L477.068 162.333L473.983 161.892L475.164 159.213L471.932 159.176L473.208 156.886C468.864 158.377 464.374 155.646 460.225 153.61C453.284 150.205 445.477 148.571 437.941 149.836C434.08 150.463 430.391 151.887 427.111 154.018C423.83 156.149 421.03 158.94 418.887 162.213C415.601 167.379 413.704 174.88 415.347 181.067C416.84 186.69 423.358 187.565 421.52 195.027Z" fill="#2F2E41"/>
<path d="M356.844 233.91C356.844 233.91 350.844 232.91 346.844 240.91C342.844 248.91 312.844 312.91 327.844 332.91C342.844 352.91 356.844 358.91 356.844 358.91L359.844 359.91L374.844 343.91L369.844 336.91C369.844 336.91 369.844 329.91 365.844 328.91C361.844 327.91 361.844 330.91 360.844 326.91C359.844 322.91 364.844 325.91 359.844 321.91C354.844 317.91 358.844 315.91 358.844 315.91L356.844 233.91Z" fill="#0085FF"/>
<path d="M462.844 367.41L461.844 375.41L447.844 358.41H452.844L462.844 367.41Z" fill="#FFB8B8"/>
<path d="M461.344 255.41C461.344 255.41 475.344 248.41 479.344 256.41C483.344 264.41 510.844 324.41 495.844 344.41C480.844 364.41 466.844 370.41 466.844 370.41L463.844 371.41L448.844 355.41L453.844 348.41C453.844 348.41 453.844 341.41 457.844 340.41C461.844 339.41 461.844 342.41 462.844 338.41C463.844 334.41 458.844 337.41 463.844 333.41C468.844 329.41 464.844 327.41 464.844 327.41L461.344 255.41Z" fill="#0085FF"/>
<path opacity="0.2" d="M366.344 273.41L355.344 317.41L368.344 333.41L362.344 313.41L366.344 273.41Z" fill="black"/>
<path opacity="0.2" d="M420.004 195.98L412.014 209.31C406.994 207.57 406.574 195.92 406.864 188.239C412.804 188.19 420.004 195.98 420.004 195.98Z" fill="black"/>
<path d="M250.108 615.676C250.282 633.47 239.764 639.785 226.716 639.913C226.413 639.916 226.111 639.915 225.811 639.911C225.206 639.904 224.607 639.882 224.015 639.846C212.23 639.127 203.017 632.685 202.855 616.137C202.688 599.011 224.365 577.185 225.991 575.571L225.994 575.57C226.056 575.508 226.087 575.478 226.087 575.478C226.087 575.478 249.935 597.883 250.108 615.676Z" fill="#D0CDE1"/>
<path d="M216.119 529.843C216.241 542.403 208.817 546.861 199.606 546.951C199.393 546.953 199.18 546.953 198.968 546.95C198.541 546.945 198.118 546.93 197.7 546.904C189.382 546.397 182.878 541.849 182.764 530.168C182.646 518.079 197.947 502.673 199.095 501.534L199.097 501.533C199.14 501.489 199.163 501.468 199.163 501.468C199.163 501.468 215.996 517.283 216.119 529.843Z" fill="#D0CDE1"/>
<path d="M199.344 549.42C232.481 549.42 259.344 547.523 259.344 545.184C259.344 542.845 232.481 540.949 199.344 540.949C166.207 540.949 139.344 542.845 139.344 545.184C139.344 547.523 166.207 549.42 199.344 549.42Z" fill="#D0CDE1"/>
<path d="M921.72 279.811H524.968V481.811H921.72V279.811Z" fill="#3F3D56"/>
<path d="M637.125 347.829H596.945V351.177H637.125V347.829Z" fill="#6C63FF"/>
<path d="M690.698 347.829H650.518V351.177H690.698V347.829Z" fill="#6C63FF"/>
<path d="M768.546 378.801H728.366V382.149H768.546V378.801Z" fill="#6C63FF"/>
<path d="M822.956 378.801H782.777V382.149H822.956V378.801Z" fill="#6C63FF"/>
<path d="M822.956 347.829H704.928V351.177H822.956V347.829Z" fill="#6C63FF"/>
<path d="M714.973 378.801H596.945V382.149H714.973V378.801Z" fill="#6C63FF"/>
<path d="M714.973 409.773H596.945V413.121H714.973V409.773Z" fill="#6C63FF"/>
<path d="M822.956 409.773H740.923V413.121H822.956V409.773Z" fill="#6C63FF"/>
<path d="M585.652 361.964L571.516 347.829L585.652 333.693L588.48 336.521L577.172 347.829L588.48 359.136L585.652 361.964Z" fill="#6C63FF"/>
<path d="M861.036 427.257L858.208 424.429L869.516 413.12L858.208 401.813L861.036 398.985L875.172 413.12L861.036 427.257Z" fill="#6C63FF"/>
<path d="M846.155 398.311L837.783 425.934L841.611 427.094L849.983 399.471L846.155 398.311Z" fill="#6C63FF"/>
<path d="M92.8111 551.681L166.879 441.535L92.9626 563.531L93.1172 575.925C87.7099 575.967 82.3552 575.877 77.053 575.655L80.7266 416.335L80.6259 415.106L80.7615 414.869L81.1131 399.814L0 282.047L81.0174 388.546L81.3049 391.729L84.0796 271.356L14.0198 149.259L84.2792 250.21L83.5458 0.830032L83.5474 3.05176e-05L83.5712 0.816338L88.222 197.362L152.073 117.525L88.431 214.294L89.8245 321.964L148.581 216.882L90.0405 337.793L90.8163 397.663L176.264 251.285L91.076 418.549L92.8111 551.681Z" fill="#D0CDE1"/>
</g>
<defs>
<clipPath id="clip0">
<rect width="921.72" height="653.41" fill="white"/>
</clipPath>
</defs>
</svg>
